<?xml version="1.0" encoding="UTF-8"?>
<!DOCTYPE svg PUBLIC "-//W3C//DTD SVG 1.1//EN" "http://www.w3.org/Graphics/SVG/1.1/DTD/svg11.dtd">
<svg xmlns="http://www.w3.org/2000/svg" version="1.1" width="246px" height="230px" style="shape-rendering:geometricPrecision; text-rendering:geometricPrecision; image-rendering:optimizeQuality; fill-rule:evenodd; clip-rule:evenodd" xmlns:xlink="http://www.w3.org/1999/xlink">
<g><path style="opacity:1" fill="#17191a" d="M -0.5,-0.5 C 81.5,-0.5 163.5,-0.5 245.5,-0.5C 245.5,76.1667 245.5,152.833 245.5,229.5C 163.5,229.5 81.5,229.5 -0.5,229.5C -0.5,152.833 -0.5,76.1667 -0.5,-0.5 Z"/></g>
<g><path style="opacity:1" fill="#333333" d="M 173.5,12.5 C 179.219,13.5487 183.052,16.882 185,22.5C 185.568,28.2439 185.568,33.9106 185,39.5C 187.84,36.6293 190.174,36.9626 192,40.5C 192.667,45.5 192.667,50.5 192,55.5C 178.051,81.7089 175.384,109.042 184,137.5C 186.572,140.403 188.739,143.569 190.5,147C 190.355,147.772 190.022,148.439 189.5,149C 187.559,149.743 185.726,149.576 184,148.5C 183.888,154.958 186.054,160.624 190.5,165.5C 188.717,169.153 186.384,169.486 183.5,166.5C 181.702,176.989 179.202,187.322 176,197.5C 174.194,202.446 171.861,207.112 169,211.5C 166.457,213.354 163.624,214.521 160.5,215C 153.833,215.667 147.167,215.667 140.5,215C 141.081,214.107 141.415,213.107 141.5,212C 139.915,207.719 139.082,203.219 139,198.5C 137.604,196.473 135.938,196.14 134,197.5C 131.386,204.094 132.553,209.927 137.5,215C 101.168,215.5 64.8349,215.667 28.5,215.5C 28.3379,213.473 28.5045,211.473 29,209.5C 39.2858,195.55 50.6191,182.55 63,170.5C 64.5,171 66,171.5 67.5,172C 72.6718,172.365 77.6718,172.531 82.5,172.5C 80.3577,176.471 77.5244,179.805 74,182.5C 73.2888,184.367 73.7888,185.867 75.5,187C 86.836,187.541 97.836,186.208 108.5,183C 106.641,187.526 103.474,190.692 99,192.5C 98.1656,195.814 99.4989,197.481 103,197.5C 114.426,199.686 124.593,197.186 133.5,190C 134.688,187.861 134.021,186.361 131.5,185.5C 127.423,187.87 123.09,189.703 118.5,191C 116.098,191.814 113.765,191.647 111.5,190.5C 119.12,174.62 115.12,170.787 99.5,179C 94.8569,179.998 90.1902,180.332 85.5,180C 88.8162,175.243 89.8162,170.076 88.5,164.5C 87.8333,164.167 87.1667,163.833 86.5,163.5C 79.6902,166.726 72.6902,167.226 65.5,165C 62.848,163.847 60.848,162.013 59.5,159.5C 78.7477,148.702 90.4144,132.369 94.5,110.5C 101.948,111.047 108.781,109.38 115,105.5C 115.986,103.075 115.319,101.409 113,100.5C 107.174,103.332 101.007,104.498 94.5,104C 90.6765,102.723 87.0099,101.057 83.5,99C 82.4464,97.6124 82.2797,96.1124 83,94.5C 91.2481,91.2529 97.2481,85.5862 101,77.5C 103.488,75.2567 106.154,73.2567 109,71.5C 111.284,63.76 115.45,57.26 121.5,52C 128.627,47.7698 135.96,44.1031 143.5,41C 154.33,32.336 164.33,22.836 173.5,12.5 Z"/></g>
<g><path style="opacity:1" fill="#333333" d="M 80.5,39.5 C 84.3541,40.1356 86.6874,42.4689 87.5,46.5C 89.813,47.2733 92.1463,47.9399 94.5,48.5C 95.4147,49.3279 96.0814,50.3279 96.5,51.5C 91.8748,55.7659 90.2082,61.0992 91.5,67.5C 87.9235,67.7949 84.7568,66.7949 82,64.5C 79.3583,67.0288 76.1916,68.0288 72.5,67.5C 72.6653,63.8183 72.4986,60.1516 72,56.5C 70.108,54.9458 68.608,53.1124 67.5,51C 67.6448,50.228 67.9781,49.5613 68.5,49C 71.1897,48.2291 73.8564,47.3958 76.5,46.5C 77.5923,43.9763 78.9257,41.643 80.5,39.5 Z"/></g>
<g><path style="opacity:1" fill="#151819" d="M 81.5,50.5 C 85.497,52.1636 86.3304,54.8303 84,58.5C 82.6667,57.1667 81.3333,57.1667 80,58.5C 79.5,57 79,55.5 78.5,54C 79.5442,52.8261 80.5442,51.6594 81.5,50.5 Z"/></g>
<g><path style="opacity:1" fill="#161819" d="M 139.5,57.5 C 141.527,57.3379 143.527,57.5045 145.5,58C 141.652,62.0156 137.652,65.8489 133.5,69.5C 132.369,67.9255 132.202,66.2588 133,64.5C 134.425,61.3937 136.592,59.0604 139.5,57.5 Z"/></g>
<g><path style="opacity:1" fill="#333333" d="M 44.5,92.5 C 46.1992,92.3398 47.8659,92.5065 49.5,93C 50.3995,95.1917 51.3995,97.3584 52.5,99.5C 55.6308,100.69 58.7975,101.69 62,102.5C 61.6501,106.584 59.8168,110.084 56.5,113C 59.5882,124.196 56.4215,126.363 47,119.5C 44.1593,122.609 40.826,123.609 37,122.5C 36.6667,118.5 36.3333,114.5 36,110.5C 33.889,108.898 32.389,106.898 31.5,104.5C 31.8333,103.833 32.1667,103.167 32.5,102.5C 35.4603,101.375 38.4603,100.375 41.5,99.5C 42.7019,97.2195 43.7019,94.8862 44.5,92.5 Z"/></g>
<g><path style="opacity:1" fill="#161819" d="M 156.5,99.5 C 157.822,99.33 158.989,99.6634 160,100.5C 160.666,107.493 161.166,114.493 161.5,121.5C 157.579,122.07 155.412,120.403 155,116.5C 154.333,111.5 154.333,106.5 155,101.5C 155.717,100.956 156.217,100.289 156.5,99.5 Z"/></g>
<g><path style="opacity:1" fill="#16191a" d="M 46.5,103.5 C 48.0894,105.306 50.0894,106.639 52.5,107.5C 50.9848,109.547 50.1515,111.881 50,114.5C 48,113.167 46,113.167 44,114.5C 43.7896,111.766 42.9563,109.266 41.5,107C 43.8808,106.777 45.5475,105.61 46.5,103.5 Z"/></g>
</svg>
