<?xml version="1.0" encoding="UTF-8"?>
<!DOCTYPE svg PUBLIC "-//W3C//DTD SVG 1.1//EN" "http://www.w3.org/Graphics/SVG/1.1/DTD/svg11.dtd">
<svg xmlns="http://www.w3.org/2000/svg" version="1.1" width="100px" height="100px" style="shape-rendering:geometricPrecision; text-rendering:geometricPrecision; image-rendering:optimizeQuality; fill-rule:evenodd; clip-rule:evenodd" xmlns:xlink="http://www.w3.org/1999/xlink">
<g><path style="opacity:1" fill="#f7fbff" d="M 80.5,-0.5 C 86.8333,-0.5 93.1667,-0.5 99.5,-0.5C 99.5,15.1667 99.5,30.8333 99.5,46.5C 97.2988,46.8584 95.9655,48.1917 95.5,50.5C 95.5997,52.9925 95.933,55.4925 96.5,58C 94.3676,58.918 93.701,60.2513 94.5,62C 93.7894,63.2547 92.956,64.4214 92,65.5C 92.3573,69.2243 92.524,72.5577 92.5,75.5C 91.9747,76.1924 91.3081,76.6924 90.5,77C 91.9255,78.7141 91.5922,80.0475 89.5,81C 89.8333,82 90.1667,83 90.5,84C 89.3279,84.4186 88.3279,85.0853 87.5,86C 88.636,87.5298 89.636,88.8631 90.5,90C 89.5,90.8333 88.5,91.6667 87.5,92.5C 88.8821,95.8015 87.8821,98.1348 84.5,99.5C 83.1667,99.5 81.8333,99.5 80.5,99.5C 80.3932,97.6214 80.8932,97.2881 82,98.5C 82.5,98 83,97.5 83.5,97C 83.2238,94.276 83.2238,91.6093 83.5,89C 84.91,88.6322 85.91,87.7989 86.5,86.5C 86.3903,84.9018 86.057,83.2352 85.5,81.5C 86.624,80.086 87.624,78.586 88.5,77C 87.9491,75.6015 87.6158,74.2682 87.5,73C 88.7788,68.2849 89.6121,63.4516 90,58.5C 92.319,55.373 93.1523,52.0397 92.5,48.5C 93.4415,48.5105 94.1081,48.0105 94.5,47C 92.9554,45.3594 93.2887,44.1928 95.5,43.5C 97.2897,40.0642 97.623,36.8976 96.5,34C 99.1667,33.3333 99.1667,32.6667 96.5,32C 98.5384,29.7113 98.5384,27.2113 96.5,24.5C 96.8333,23.8333 97.1667,23.1667 97.5,22.5C 97.1543,21.3044 96.6543,21.3044 96,22.5C 95.3828,21.5509 95.5494,20.7175 96.5,20C 94.4311,19.6758 94.0977,18.8425 95.5,17.5C 93.8903,15.5052 92.5569,13.3386 91.5,11C 91.8333,10.6667 92.1667,10.3333 92.5,10C 89.5719,8.74015 87.7386,6.57349 87,3.5C 86.6667,3.83333 86.3333,4.16667 86,4.5C 83.817,4.03484 81.6503,2.86817 79.5,1C 80.056,0.617425 80.3893,0.117425 80.5,-0.5 Z"/></g>
<g><path style="opacity:1" fill="#c9e3fe" d="M 23.5,-0.5 C 25.8333,-0.5 28.1667,-0.5 30.5,-0.5C 34.3986,0.763972 38.3986,2.09731 42.5,3.5C 47.7784,3.45593 52.6117,3.45593 57,3.5C 59.7905,4.56192 62.4572,5.89525 65,7.5C 65.3333,6.83333 65.6667,6.16667 66,5.5C 69.8045,7.92893 73.6378,10.2623 77.5,12.5C 83.6041,19.7695 85.9375,27.7695 84.5,36.5C 85.1667,36.8333 85.8333,37.1667 86.5,37.5C 85.5321,40.2732 84.1988,42.7732 82.5,45C 83.1667,45.3333 83.8333,45.6667 84.5,46C 82.5775,49.1783 80.9108,52.5117 79.5,56C 79.7384,58.5624 78.7384,60.8957 76.5,63C 77.2117,66.9197 77.545,70.9197 77.5,75C 76.6667,75.8333 75.8333,76.6667 75,77.5C 74.1901,83.5748 72.6901,89.4081 70.5,95C 69.2714,96.3864 68.2714,97.8864 67.5,99.5C 65.5,99.5 63.5,99.5 61.5,99.5C 62.209,98.596 63.209,98.2627 64.5,98.5C 66.5013,93.0182 69.168,87.8516 72.5,83C 71.7607,80.7646 71.7607,78.7646 72.5,77C 72.9963,75.0036 73.9963,73.3369 75.5,72C 74.1667,70.6667 74.1667,69.3333 75.5,68C 74.8333,67.6667 74.1667,67.3333 73.5,67C 77.8714,55.7683 81.5381,44.2683 84.5,32.5C 81.9844,27.4689 79.4844,22.4689 77,17.5C 74.0381,14.4401 70.7048,12.7734 67,12.5C 64.0394,9.31297 60.8728,8.97963 57.5,11.5C 55.522,10.8686 53.3554,10.8686 51,11.5C 48.7533,9.84525 46.4199,9.51191 44,10.5C 41.5764,9.37374 39.0764,8.37374 36.5,7.5C 33.7379,7.97741 31.0712,7.97741 28.5,7.5C 26.7673,8.00764 26.434,8.84098 27.5,10C 26.552,10.4828 25.552,10.6495 24.5,10.5C 23.1851,9.52435 21.8518,8.52435 20.5,7.5C 19.0815,8.00475 18.4148,9.00475 18.5,10.5C 14.7308,11.4237 13.7308,13.5904 15.5,17C 14.8333,17.6667 14.1667,18.3333 13.5,19C 15.4253,21.868 15.4253,24.5346 13.5,27C 14.6721,27.4186 15.6721,28.0853 16.5,29C 16.091,31.2036 15.7576,33.3703 15.5,35.5C 16.0656,37.6969 16.7323,39.8636 17.5,42C 16.6323,43.8646 16.9657,45.698 18.5,47.5C 17.0465,49.6439 17.3799,51.4773 19.5,53C 19.3809,54.1448 19.0476,55.3115 18.5,56.5C 16.9519,52.508 15.2853,48.3414 13.5,44C 14.1667,43.6667 14.8333,43.3333 15.5,43C 15.451,38.1601 14.1176,33.4935 11.5,29C 11.6531,27.4386 11.9864,25.6052 12.5,23.5C 11.5009,20.4724 10.8342,17.6391 10.5,15C 11.1667,14 11.8333,13 12.5,12C 11.4829,10.9505 11.3162,9.78387 12,8.5C 12.414,8.95735 12.914,9.29069 13.5,9.5C 15.9029,7.69495 17.5695,5.36162 18.5,2.5C 20.1446,1.30374 21.8113,0.303736 23.5,-0.5 Z"/></g>
<g><path style="opacity:1" fill="#111115" d="M 24.5,10.5 C 26.0872,13.2682 27.9205,15.9348 30,18.5C 30.8926,19.0814 31.8926,19.4148 33,19.5C 43.4206,17.7496 53.9206,17.083 64.5,17.5C 63.0736,18.3412 61.7403,19.3412 60.5,20.5C 54.1579,20.3338 47.8246,20.5005 41.5,21C 38.9488,21.0023 36.9488,21.8356 35.5,23.5C 33.2543,22.5448 30.921,21.8782 28.5,21.5C 28.6747,23.6208 28.3414,25.6208 27.5,27.5C 25.5589,29.0106 25.0589,31.0106 26,33.5C 26.8596,36.6328 28.3596,39.2995 30.5,41.5C 30.573,43.0269 29.9063,44.0269 28.5,44.5C 26.8267,43.657 25.66,42.3237 25,40.5C 21.1798,33.2437 21.6798,26.4104 26.5,20C 24.2674,17.0042 21.9341,14.1708 19.5,11.5C 19.5,10.8333 19.1667,10.5 18.5,10.5C 18.4148,9.00475 19.0815,8.00475 20.5,7.5C 21.8518,8.52435 23.1851,9.52435 24.5,10.5 Z"/></g>
<g><path style="opacity:1" fill="#a2cefd" d="M 28.5,7.5 C 29.7838,9.65557 31.2838,10.9889 33,11.5C 40.1901,10.4429 47.8567,11.1096 56,13.5C 59.92,13.099 63.7534,13.9324 67.5,16C 66.944,16.3826 66.6107,16.8826 66.5,17.5C 65.8333,17.5 65.1667,17.5 64.5,17.5C 53.9206,17.083 43.4206,17.7496 33,19.5C 31.8926,19.4148 30.8926,19.0814 30,18.5C 27.9205,15.9348 26.0872,13.2682 24.5,10.5C 25.552,10.6495 26.552,10.4828 27.5,10C 26.434,8.84098 26.7673,8.00764 28.5,7.5 Z"/></g>
<g><path style="opacity:1" fill="#edf5ff" d="M 45.5,-0.5 C 57.1667,-0.5 68.8333,-0.5 80.5,-0.5C 80.3893,0.117425 80.056,0.617425 79.5,1C 81.6503,2.86817 83.817,4.03484 86,4.5C 86.3333,4.16667 86.6667,3.83333 87,3.5C 87.7386,6.57349 89.5719,8.74015 92.5,10C 92.1667,10.3333 91.8333,10.6667 91.5,11C 92.5569,13.3386 93.8903,15.5052 95.5,17.5C 94.0977,18.8425 94.4311,19.6758 96.5,20C 95.5494,20.7175 95.3828,21.5509 96,22.5C 96.6543,21.3044 97.1543,21.3044 97.5,22.5C 97.1667,23.1667 96.8333,23.8333 96.5,24.5C 98.5384,27.2113 98.5384,29.7113 96.5,32C 99.1667,32.6667 99.1667,33.3333 96.5,34C 97.623,36.8976 97.2897,40.0642 95.5,43.5C 93.2887,44.1928 92.9554,45.3594 94.5,47C 94.1081,48.0105 93.4415,48.5105 92.5,48.5C 93.1523,52.0397 92.319,55.373 90,58.5C 89.6121,63.4516 88.7788,68.2849 87.5,73C 87.6158,74.2682 87.9491,75.6015 88.5,77C 87.624,78.586 86.624,80.086 85.5,81.5C 86.057,83.2352 86.3903,84.9018 86.5,86.5C 85.91,87.7989 84.91,88.6322 83.5,89C 83.2238,91.6093 83.2238,94.276 83.5,97C 83,97.5 82.5,98 82,98.5C 80.8932,97.2881 80.3932,97.6214 80.5,99.5C 77.8333,99.5 75.1667,99.5 72.5,99.5C 76.4085,94.1842 79.4085,88.3509 81.5,82C 81.3349,80.8831 81.0016,79.7164 80.5,78.5C 81.8954,75.6305 82.8954,72.9638 83.5,70.5C 83.2907,69.914 82.9574,69.414 82.5,69C 84.0911,66.6137 85.0911,63.947 85.5,61C 85.1667,60.6667 84.8333,60.3333 84.5,60C 85.9929,54.4714 88.3262,48.9714 91.5,43.5C 90.0465,41.3561 90.3799,39.5227 92.5,38C 90.4311,37.6758 90.0977,36.8425 91.5,35.5C 89.6155,34.8027 89.2822,33.8027 90.5,32.5C 89.7349,30.7049 89.0682,28.8716 88.5,27C 88.9054,26.0546 89.572,25.3879 90.5,25C 88.8753,24.1475 88.5419,23.1475 89.5,22C 87.1144,21.7165 86.4477,20.7165 87.5,19C 84.0583,13.5562 79.8916,9.38952 75,6.5C 74.6667,6.83333 74.3333,7.16667 74,7.5C 66.22,2.05075 58.22,0.0507538 50,1.5C 48.3775,0.901085 46.8775,0.234419 45.5,-0.5 Z"/></g>
<g><path style="opacity:1" fill="#7cb3ec" d="M 60.5,20.5 C 59.9862,22.3664 59.3195,24.1997 58.5,26C 59.8157,27.6587 61.4824,28.8254 63.5,29.5C 61.0521,30.4731 58.3854,30.8064 55.5,30.5C 55.5979,28.4471 54.9313,26.7804 53.5,25.5C 53.4413,23.2776 52.2747,22.2776 50,22.5C 47.8886,22.7006 46.0552,23.3673 44.5,24.5C 43.8333,25.1667 43.1667,25.8333 42.5,26.5C 40.2163,26.0248 38.2163,25.0248 36.5,23.5C 36.1667,23.5 35.8333,23.5 35.5,23.5C 36.9488,21.8356 38.9488,21.0023 41.5,21C 47.8246,20.5005 54.1579,20.3338 60.5,20.5 Z"/></g>
<g><path style="opacity:1" fill="#e90e09" d="M 64.5,17.5 C 65.1667,17.5 65.8333,17.5 66.5,17.5C 70.2725,17.8838 73.2725,19.5505 75.5,22.5C 73.7324,24.5078 72.0657,26.6744 70.5,29C 68.1565,30.4154 65.8232,30.5821 63.5,29.5C 61.4824,28.8254 59.8157,27.6587 58.5,26C 59.3195,24.1997 59.9862,22.3664 60.5,20.5C 61.7403,19.3412 63.0736,18.3412 64.5,17.5 Z"/></g>
<g><path style="opacity:1" fill="#e632d2" d="M 35.5,23.5 C 35.8333,23.5 36.1667,23.5 36.5,23.5C 36.5,24.8333 36.5,26.1667 36.5,27.5C 33.5939,28.7866 30.5939,29.7866 27.5,30.5C 27.5,29.5 27.5,28.5 27.5,27.5C 28.3414,25.6208 28.6747,23.6208 28.5,21.5C 30.921,21.8782 33.2543,22.5448 35.5,23.5 Z"/></g>
<g><path style="opacity:1" fill="#141114" d="M 75.5,22.5 C 76.4345,23.5676 76.7678,24.901 76.5,26.5C 75.194,28.4727 73.5273,30.1394 71.5,31.5C 66.0548,33.3451 60.3882,34.0117 54.5,33.5C 54.5569,32.391 54.8902,31.391 55.5,30.5C 58.3854,30.8064 61.0521,30.4731 63.5,29.5C 65.8232,30.5821 68.1565,30.4154 70.5,29C 72.0657,26.6744 73.7324,24.5078 75.5,22.5 Z"/></g>
<g><path style="opacity:1" fill="#08f00d" d="M 53.5,25.5 C 53.7886,28.6492 53.2886,31.6492 52,34.5C 51.7216,33.5842 51.2216,32.9175 50.5,32.5C 50.5086,30.6916 50.0086,29.0249 49,27.5C 47.6124,28.5536 46.1124,28.7203 44.5,28C 45.6843,26.8545 45.6843,25.6879 44.5,24.5C 46.0552,23.3673 47.8886,22.7006 50,22.5C 52.2747,22.2776 53.4413,23.2776 53.5,25.5 Z"/></g>
<g><path style="opacity:1" fill="#0f0d14" d="M 36.5,23.5 C 38.2163,25.0248 40.2163,26.0248 42.5,26.5C 42.1667,27.8333 41.8333,29.1667 41.5,30.5C 39.6316,29.7368 37.9649,28.7368 36.5,27.5C 36.5,26.1667 36.5,24.8333 36.5,23.5 Z"/></g>
<g><path style="opacity:1" fill="#eff6ff" d="M -0.5,-0.5 C 4.5,-0.5 9.5,-0.5 14.5,-0.5C 12.5401,-0.14933 10.7068,1.184 9,3.5C 6.9615,6.27065 5.29483,9.27065 4,12.5C 4.36195,15.6614 4.19529,18.6614 3.5,21.5C 5.37513,22.969 5.37513,24.8024 3.5,27C 4.16667,27.3333 4.83333,27.6667 5.5,28C 5.5,30 5.5,32 5.5,34C 6.9248,38.2729 8.25813,42.6063 9.5,47C 9.3552,47.772 9.02186,48.4387 8.5,49C 9.38589,50.2173 10.3859,51.5507 11.5,53C 10.803,55.7092 10.4697,58.3759 10.5,61C 11.1667,62.3333 12.1667,63.3333 13.5,64C 10.8333,64.6667 10.8333,65.3333 13.5,66C 12.1667,66.6667 12.1667,67.3333 13.5,68C 12.8333,68.3333 12.1667,68.6667 11.5,69C 13.5829,70.6189 15.2496,72.6189 16.5,75C 16.1643,79.3293 17.4977,83.3293 20.5,87C 20.1667,87.3333 19.8333,87.6667 19.5,88C 21.3223,91.9718 23.3223,95.8051 25.5,99.5C 23.5,99.5 21.5,99.5 19.5,99.5C 19.6107,98.8826 19.944,98.3826 20.5,98C 17.8095,95.0208 15.4762,92.3541 13.5,90C 16.1494,87.5634 15.4828,86.23 11.5,86C 12.5,85.6667 13.5,85.3333 14.5,85C 14.1976,83.3451 12.8642,82.0118 10.5,81C 10.451,76.1601 9.11764,71.4935 6.5,67C 6.83333,66 7.16667,65 7.5,64C 5.43107,63.6758 5.09773,62.8425 6.5,61.5C 5.68723,60.1861 4.68723,59.0195 3.5,58C 4.32791,57.0853 5.32791,56.4186 6.5,56C 5.15153,53.9896 3.8182,51.9896 2.5,50C 3.69534,48.4675 3.69534,46.9675 2.5,45.5C 3.16667,44.8333 3.83333,44.1667 4.5,43.5C 3.2887,42.1255 2.2887,40.6255 1.5,39C 2.24551,36.8314 1.57884,34.9981 -0.5,33.5C -0.5,22.1667 -0.5,10.8333 -0.5,-0.5 Z"/></g>
<g><path style="opacity:1" fill="#7ab5f4" d="M 27.5,27.5 C 27.5,28.5 27.5,29.5 27.5,30.5C 30.5939,29.7866 33.5939,28.7866 36.5,27.5C 37.9649,28.7368 39.6316,29.7368 41.5,30.5C 43.5575,39.7312 47.8909,40.7312 54.5,33.5C 60.3882,34.0117 66.0548,33.3451 71.5,31.5C 72.1182,33.4234 71.7849,35.4234 70.5,37.5C 71.544,39.6997 71.544,41.6997 70.5,43.5C 68.6406,42.4058 66.6406,41.5725 64.5,41C 56.5069,40.5003 48.5069,40.3336 40.5,40.5C 38.3814,40.2686 36.2147,39.9353 34,39.5C 32.6974,39.9783 31.5307,40.645 30.5,41.5C 28.3596,39.2995 26.8596,36.6328 26,33.5C 25.0589,31.0106 25.5589,29.0106 27.5,27.5 Z"/></g>
<g><path style="opacity:1" fill="#20d325" d="M 44.5,24.5 C 45.6843,25.6879 45.6843,26.8545 44.5,28C 46.1124,28.7203 47.6124,28.5536 49,27.5C 50.0086,29.0249 50.5086,30.6916 50.5,32.5C 51.2216,32.9175 51.7216,33.5842 52,34.5C 53.2886,31.6492 53.7886,28.6492 53.5,25.5C 54.9313,26.7804 55.5979,28.4471 55.5,30.5C 54.8902,31.391 54.5569,32.391 54.5,33.5C 47.8909,40.7312 43.5575,39.7312 41.5,30.5C 41.8333,29.1667 42.1667,27.8333 42.5,26.5C 43.1667,25.8333 43.8333,25.1667 44.5,24.5 Z"/></g>
<g><path style="opacity:1" fill="#05fd04" d="M 50.5,32.5 C 50.2204,36.2253 48.2204,37.392 44.5,36C 45.4791,34.2215 45.1458,32.5548 43.5,31C 46.5963,28.5678 48.9297,29.0678 50.5,32.5 Z"/></g>
<g><path style="opacity:1" fill="#0b0d12" d="M 40.5,40.5 C 48.5069,40.3336 56.5069,40.5003 64.5,41C 66.6406,41.5725 68.6406,42.4058 70.5,43.5C 70.5,44.8333 70.5,46.1667 70.5,47.5C 69.5,47.8333 68.8333,48.5 68.5,49.5C 67.5195,47.604 66.5195,45.604 65.5,43.5C 64.5754,42.4376 63.5754,42.4376 62.5,43.5C 56.2564,42.5422 49.923,42.2088 43.5,42.5C 41.9731,42.573 40.9731,41.9063 40.5,40.5 Z"/></g>
<g><path style="opacity:1" fill="#0304f4" d="M 40.5,48.5 C 40.5,48.8333 40.5,49.1667 40.5,49.5C 37.8333,50.8333 35.1667,50.8333 32.5,49.5C 32.5,49.1667 32.5,48.8333 32.5,48.5C 31.8592,47.5178 31.1925,46.5178 30.5,45.5C 31.853,44.3147 33.0197,42.9814 34,41.5C 35.4866,42.1552 36.6533,43.1552 37.5,44.5C 36.1666,45.6199 35.6666,46.9532 36,48.5C 37.2633,46.2031 39.0966,45.3698 41.5,46C 40.7476,46.6708 40.4142,47.5041 40.5,48.5 Z"/></g>
<g><path style="opacity:1" fill="#6eacef" d="M 43.5,42.5 C 49.923,42.2088 56.2564,42.5422 62.5,43.5C 60.3805,45.3998 58.0472,47.0664 55.5,48.5C 51.087,48.3129 46.7536,47.6462 42.5,46.5C 43.2341,45.2921 43.5674,43.9587 43.5,42.5 Z"/></g>
<g><path style="opacity:1" fill="#1710c4" d="M 40.5,40.5 C 40.9731,41.9063 41.9731,42.573 43.5,42.5C 43.5674,43.9587 43.2341,45.2921 42.5,46.5C 42.1667,47.5 41.5,48.1667 40.5,48.5C 40.4142,47.5041 40.7476,46.6708 41.5,46C 39.0966,45.3698 37.2633,46.2031 36,48.5C 35.6666,46.9532 36.1666,45.6199 37.5,44.5C 36.6533,43.1552 35.4866,42.1552 34,41.5C 33.0197,42.9814 31.853,44.3147 30.5,45.5C 31.1925,46.5178 31.8592,47.5178 32.5,48.5C 31.391,48.4431 30.391,48.1098 29.5,47.5C 28.8902,46.609 28.5569,45.609 28.5,44.5C 29.9063,44.0269 30.573,43.0269 30.5,41.5C 31.5307,40.645 32.6974,39.9783 34,39.5C 36.2147,39.9353 38.3814,40.2686 40.5,40.5 Z"/></g>
<g><path style="opacity:1" fill="#fcfdff" d="M 99.5,46.5 C 99.5,64.1667 99.5,81.8333 99.5,99.5C 94.5,99.5 89.5,99.5 84.5,99.5C 87.8821,98.1348 88.8821,95.8015 87.5,92.5C 88.5,91.6667 89.5,90.8333 90.5,90C 89.636,88.8631 88.636,87.5298 87.5,86C 88.3279,85.0853 89.3279,84.4186 90.5,84C 90.1667,83 89.8333,82 89.5,81C 91.5922,80.0475 91.9255,78.7141 90.5,77C 91.3081,76.6924 91.9747,76.1924 92.5,75.5C 92.524,72.5577 92.3573,69.2243 92,65.5C 92.956,64.4214 93.7894,63.2547 94.5,62C 93.701,60.2513 94.3676,58.918 96.5,58C 95.933,55.4925 95.5997,52.9925 95.5,50.5C 95.9655,48.1917 97.2988,46.8584 99.5,46.5 Z"/></g>
<g><path style="opacity:1" fill="#0d1014" d="M 29.5,47.5 C 30.391,48.1098 31.391,48.4431 32.5,48.5C 32.5,48.8333 32.5,49.1667 32.5,49.5C 34.2217,55.5568 38.2217,58.5568 44.5,58.5C 44.2627,59.791 44.596,60.791 45.5,61.5C 46.842,62.793 48.5087,63.6264 50.5,64C 54.9558,64.8673 59.2891,64.5339 63.5,63C 60.8934,60.8951 57.8934,60.0617 54.5,60.5C 53.8333,59.5 53.1667,58.5 52.5,57.5C 57.2718,56.9634 61.6051,57.9634 65.5,60.5C 65.915,63.368 64.915,65.5347 62.5,67C 54.7156,68.4233 47.3823,67.2567 40.5,63.5C 39.1606,72.6571 42.994,75.9904 52,73.5C 55.2051,73.3934 58.2051,74.0601 61,75.5C 61.6838,76.7839 61.5171,77.9505 60.5,79C 55.4262,81.0742 50.4262,80.9075 45.5,78.5C 43.9479,81.5674 44.6145,84.0674 47.5,86C 50.5,86.3333 53.5,86.6667 56.5,87C 57.3802,88.3561 57.7135,89.8561 57.5,91.5C 53.4714,91.8514 49.638,91.1848 46,89.5C 45.2352,89.5699 44.7352,89.9033 44.5,90.5C 42.7023,86.3888 41.5356,81.7222 41,76.5C 35.8546,72.3796 34.3546,67.2129 36.5,61C 32.1714,57.5124 29.8381,53.0124 29.5,47.5 Z"/></g>
<g><path style="opacity:1" fill="#0a0c12" d="M 42.5,46.5 C 46.7536,47.6462 51.087,48.3129 55.5,48.5C 56.6935,49.2719 57.6935,50.2719 58.5,51.5C 52.3685,51.6207 46.3685,50.954 40.5,49.5C 40.5,49.1667 40.5,48.8333 40.5,48.5C 41.5,48.1667 42.1667,47.5 42.5,46.5 Z"/></g>
<g><path style="opacity:1" fill="#dbecff" d="M 14.5,-0.5 C 17.5,-0.5 20.5,-0.5 23.5,-0.5C 21.8113,0.303736 20.1446,1.30374 18.5,2.5C 17.5695,5.36162 15.9029,7.69495 13.5,9.5C 12.914,9.29069 12.414,8.95735 12,8.5C 11.3162,9.78387 11.4829,10.9505 12.5,12C 11.8333,13 11.1667,14 10.5,15C 10.8342,17.6391 11.5009,20.4724 12.5,23.5C 11.9864,25.6052 11.6531,27.4386 11.5,29C 14.1176,33.4935 15.451,38.1601 15.5,43C 14.8333,43.3333 14.1667,43.6667 13.5,44C 15.2853,48.3414 16.9519,52.508 18.5,56.5C 19.7221,57.937 19.7221,59.437 18.5,61C 18.7591,62.2613 19.4258,63.2613 20.5,64C 19.6919,64.3076 19.0253,64.8076 18.5,65.5C 20.4414,67.3159 21.1081,69.3159 20.5,71.5C 21.1892,73.444 21.6892,75.444 22,77.5C 26.0946,82.0261 28.2612,87.3594 28.5,93.5C 32.0146,94.3453 34.6813,96.3453 36.5,99.5C 32.8333,99.5 29.1667,99.5 25.5,99.5C 23.3223,95.8051 21.3223,91.9718 19.5,88C 19.8333,87.6667 20.1667,87.3333 20.5,87C 17.4977,83.3293 16.1643,79.3293 16.5,75C 15.2496,72.6189 13.5829,70.6189 11.5,69C 12.1667,68.6667 12.8333,68.3333 13.5,68C 12.1667,67.3333 12.1667,66.6667 13.5,66C 10.8333,65.3333 10.8333,64.6667 13.5,64C 12.1667,63.3333 11.1667,62.3333 10.5,61C 10.4697,58.3759 10.803,55.7092 11.5,53C 10.3859,51.5507 9.38589,50.2173 8.5,49C 9.02186,48.4387 9.3552,47.772 9.5,47C 8.25813,42.6063 6.9248,38.2729 5.5,34C 5.5,32 5.5,30 5.5,28C 4.83333,27.6667 4.16667,27.3333 3.5,27C 5.37513,24.8024 5.37513,22.969 3.5,21.5C 4.19529,18.6614 4.36195,15.6614 4,12.5C 5.29483,9.27065 6.9615,6.27065 9,3.5C 10.7068,1.184 12.5401,-0.14933 14.5,-0.5 Z"/></g>
<g><path style="opacity:1" fill="#7cb6f4" d="M 70.5,47.5 C 70.0798,49.674 70.0798,51.674 70.5,53.5C 69.5342,56.4686 67.8675,58.802 65.5,60.5C 61.6051,57.9634 57.2718,56.9634 52.5,57.5C 51.4045,55.642 50.0712,53.9754 48.5,52.5C 47.1433,54.5654 45.81,56.5654 44.5,58.5C 38.2217,58.5568 34.2217,55.5568 32.5,49.5C 35.1667,50.8333 37.8333,50.8333 40.5,49.5C 46.3685,50.954 52.3685,51.6207 58.5,51.5C 60.8553,52.0944 63.022,53.0944 65,54.5C 67.6372,53.8994 68.8039,52.2327 68.5,49.5C 68.8333,48.5 69.5,47.8333 70.5,47.5 Z"/></g>
<g><path style="opacity:1" fill="#b9dafe" d="M 61.5,99.5 C 55.5,99.5 49.5,99.5 43.5,99.5C 40.3029,96.3026 37.4696,93.3026 35,90.5C 33.5252,87.0791 31.8586,83.7458 30,80.5C 29.2362,77.234 28.7362,74.234 28.5,71.5C 30.0428,72.7358 31.0428,74.4024 31.5,76.5C 31.2907,77.086 30.9574,77.586 30.5,78C 33.9782,83.2599 37.1449,88.0932 40,92.5C 42.0713,93.3639 43.738,94.6972 45,96.5C 48.4684,95.1969 51.9684,95.1969 55.5,96.5C 55.8333,95.8333 56.1667,95.1667 56.5,94.5C 57.086,94.7093 57.586,95.0426 58,95.5C 60.8343,92.8326 63.001,89.666 64.5,86C 63.944,85.6174 63.6107,85.1174 63.5,84.5C 64.2423,82.5742 65.2423,80.7409 66.5,79C 65.9781,78.4387 65.6448,77.772 65.5,77C 66.64,74.5064 67.9734,71.6731 69.5,68.5C 69.2907,67.914 68.9574,67.414 68.5,67C 71.4637,66.1597 71.797,65.1597 69.5,64C 70.7651,56.7988 73.4317,50.1321 77.5,44C 77.0077,39.93 77.6743,35.93 79.5,32C 78.1198,30.6764 77.7865,29.3431 78.5,28C 77.9558,27.2828 77.2891,26.7828 76.5,26.5C 76.7678,24.901 76.4345,23.5676 75.5,22.5C 73.2725,19.5505 70.2725,17.8838 66.5,17.5C 66.6107,16.8826 66.944,16.3826 67.5,16C 63.7534,13.9324 59.92,13.099 56,13.5C 47.8567,11.1096 40.1901,10.4429 33,11.5C 31.2838,10.9889 29.7838,9.65557 28.5,7.5C 31.0712,7.97741 33.7379,7.97741 36.5,7.5C 39.0764,8.37374 41.5764,9.37374 44,10.5C 46.4199,9.51191 48.7533,9.84525 51,11.5C 53.3554,10.8686 55.522,10.8686 57.5,11.5C 60.8728,8.97963 64.0394,9.31297 67,12.5C 70.7048,12.7734 74.0381,14.4401 77,17.5C 79.4844,22.4689 81.9844,27.4689 84.5,32.5C 81.5381,44.2683 77.8714,55.7683 73.5,67C 74.1667,67.3333 74.8333,67.6667 75.5,68C 74.1667,69.3333 74.1667,70.6667 75.5,72C 73.9963,73.3369 72.9963,75.0036 72.5,77C 71.7607,78.7646 71.7607,80.7646 72.5,83C 69.168,87.8516 66.5013,93.0182 64.5,98.5C 63.209,98.2627 62.209,98.596 61.5,99.5 Z"/></g>
<g><path style="opacity:1" fill="#daebff" d="M 30.5,-0.5 C 35.5,-0.5 40.5,-0.5 45.5,-0.5C 46.8775,0.234419 48.3775,0.901085 50,1.5C 58.22,0.0507538 66.22,2.05075 74,7.5C 74.3333,7.16667 74.6667,6.83333 75,6.5C 79.8916,9.38952 84.0583,13.5562 87.5,19C 86.4477,20.7165 87.1144,21.7165 89.5,22C 88.5419,23.1475 88.8753,24.1475 90.5,25C 89.572,25.3879 88.9054,26.0546 88.5,27C 89.0682,28.8716 89.7349,30.7049 90.5,32.5C 89.2822,33.8027 89.6155,34.8027 91.5,35.5C 90.0977,36.8425 90.4311,37.6758 92.5,38C 90.3799,39.5227 90.0465,41.3561 91.5,43.5C 88.3262,48.9714 85.9929,54.4714 84.5,60C 84.8333,60.3333 85.1667,60.6667 85.5,61C 85.0911,63.947 84.0911,66.6137 82.5,69C 82.9574,69.414 83.2907,69.914 83.5,70.5C 82.8954,72.9638 81.8954,75.6305 80.5,78.5C 81.0016,79.7164 81.3349,80.8831 81.5,82C 79.4085,88.3509 76.4085,94.1842 72.5,99.5C 70.8333,99.5 69.1667,99.5 67.5,99.5C 68.2714,97.8864 69.2714,96.3864 70.5,95C 72.6901,89.4081 74.1901,83.5748 75,77.5C 75.8333,76.6667 76.6667,75.8333 77.5,75C 77.545,70.9197 77.2117,66.9197 76.5,63C 78.7384,60.8957 79.7384,58.5624 79.5,56C 80.9108,52.5117 82.5775,49.1783 84.5,46C 83.8333,45.6667 83.1667,45.3333 82.5,45C 84.1988,42.7732 85.5321,40.2732 86.5,37.5C 85.8333,37.1667 85.1667,36.8333 84.5,36.5C 85.9375,27.7695 83.6041,19.7695 77.5,12.5C 73.6378,10.2623 69.8045,7.92893 66,5.5C 65.6667,6.16667 65.3333,6.83333 65,7.5C 62.4572,5.89525 59.7905,4.56192 57,3.5C 52.6117,3.45593 47.7784,3.45593 42.5,3.5C 38.3986,2.09731 34.3986,0.763972 30.5,-0.5 Z"/></g>
<g><path style="opacity:1" fill="#fafcff" d="M -0.5,33.5 C 1.57884,34.9981 2.24551,36.8314 1.5,39C 2.2887,40.6255 3.2887,42.1255 4.5,43.5C 3.83333,44.1667 3.16667,44.8333 2.5,45.5C 3.69534,46.9675 3.69534,48.4675 2.5,50C 3.8182,51.9896 5.15153,53.9896 6.5,56C 5.32791,56.4186 4.32791,57.0853 3.5,58C 4.68723,59.0195 5.68723,60.1861 6.5,61.5C 5.09773,62.8425 5.43107,63.6758 7.5,64C 7.16667,65 6.83333,66 6.5,67C 9.11764,71.4935 10.451,76.1601 10.5,81C 12.8642,82.0118 14.1976,83.3451 14.5,85C 13.5,85.3333 12.5,85.6667 11.5,86C 15.4828,86.23 16.1494,87.5634 13.5,90C 15.4762,92.3541 17.8095,95.0208 20.5,98C 19.944,98.3826 19.6107,98.8826 19.5,99.5C 12.8333,99.5 6.16667,99.5 -0.5,99.5C -0.5,77.5 -0.5,55.5 -0.5,33.5 Z"/></g>
<g><path style="opacity:1" fill="#7f1ee5" d="M 68.5,49.5 C 68.8039,52.2327 67.6372,53.8994 65,54.5C 63.022,53.0944 60.8553,52.0944 58.5,51.5C 57.6935,50.2719 56.6935,49.2719 55.5,48.5C 58.0472,47.0664 60.3805,45.3998 62.5,43.5C 63.5754,42.4376 64.5754,42.4376 65.5,43.5C 66.5195,45.604 67.5195,47.604 68.5,49.5 Z"/></g>
<g><path style="opacity:1" fill="#dfe123" d="M 52.5,57.5 C 53.1667,58.5 53.8333,59.5 54.5,60.5C 51.6085,61.4025 48.6085,61.7359 45.5,61.5C 44.596,60.791 44.2627,59.791 44.5,58.5C 45.81,56.5654 47.1433,54.5654 48.5,52.5C 50.0712,53.9754 51.4045,55.642 52.5,57.5 Z"/></g>
<g><path style="opacity:1" fill="#77aee7" d="M 54.5,60.5 C 57.8934,60.0617 60.8934,60.8951 63.5,63C 59.2891,64.5339 54.9558,64.8673 50.5,64C 48.5087,63.6264 46.842,62.793 45.5,61.5C 48.6085,61.7359 51.6085,61.4025 54.5,60.5 Z"/></g>
<g><path style="opacity:1" fill="#92c4fa" d="M 76.5,26.5 C 77.2891,26.7828 77.9558,27.2828 78.5,28C 77.7865,29.3431 78.1198,30.6764 79.5,32C 77.6743,35.93 77.0077,39.93 77.5,44C 73.4317,50.1321 70.7651,56.7988 69.5,64C 71.797,65.1597 71.4637,66.1597 68.5,67C 68.9574,67.414 69.2907,67.914 69.5,68.5C 67.9734,71.6731 66.64,74.5064 65.5,77C 65.6448,77.772 65.9781,78.4387 66.5,79C 65.2423,80.7409 64.2423,82.5742 63.5,84.5C 61.4935,83.3215 61.1602,83.8215 62.5,86C 60.5676,87.3518 59.2343,89.1851 58.5,91.5C 57.5,91.8333 56.5,92.1667 55.5,92.5C 52.7727,93.3913 50.106,93.7247 47.5,93.5C 46.8589,92.0065 45.8589,91.0065 44.5,90.5C 44.7352,89.9033 45.2352,89.5699 46,89.5C 49.638,91.1848 53.4714,91.8514 57.5,91.5C 57.7135,89.8561 57.3802,88.3561 56.5,87C 53.5,86.6667 50.5,86.3333 47.5,86C 44.6145,84.0674 43.9479,81.5674 45.5,78.5C 50.4262,80.9075 55.4262,81.0742 60.5,79C 61.5171,77.9505 61.6838,76.7839 61,75.5C 58.2051,74.0601 55.2051,73.3934 52,73.5C 42.994,75.9904 39.1606,72.6571 40.5,63.5C 47.3823,67.2567 54.7156,68.4233 62.5,67C 64.915,65.5347 65.915,63.368 65.5,60.5C 67.8675,58.802 69.5342,56.4686 70.5,53.5C 70.0798,51.674 70.0798,49.674 70.5,47.5C 70.5,46.1667 70.5,44.8333 70.5,43.5C 71.544,41.6997 71.544,39.6997 70.5,37.5C 71.7849,35.4234 72.1182,33.4234 71.5,31.5C 73.5273,30.1394 75.194,28.4727 76.5,26.5 Z"/></g>
<g><path style="opacity:1" fill="#4a6d92" d="M 49.5,76.5 C 52.0241,75.1997 54.6908,75.1997 57.5,76.5C 54.8438,77.6145 52.1771,77.6145 49.5,76.5 Z"/></g>
<g><path style="opacity:1" fill="#c2dffe" d="M 18.5,10.5 C 19.1667,10.5 19.5,10.8333 19.5,11.5C 19.2636,15.634 18.2636,19.134 16.5,22C 18.2587,27.2394 18.5921,32.2394 17.5,37C 18.8511,39.3417 19.1845,41.6751 18.5,44C 19.4652,48.5625 21.4652,52.5625 24.5,56C 25.8333,58.6667 25.8333,61.3333 24.5,64C 25.7525,66.6327 27.0858,69.1327 28.5,71.5C 28.7362,74.234 29.2362,77.234 30,80.5C 31.8586,83.7458 33.5252,87.0791 35,90.5C 37.4696,93.3026 40.3029,96.3026 43.5,99.5C 41.1667,99.5 38.8333,99.5 36.5,99.5C 34.6813,96.3453 32.0146,94.3453 28.5,93.5C 28.2612,87.3594 26.0946,82.0261 22,77.5C 21.6892,75.444 21.1892,73.444 20.5,71.5C 21.1081,69.3159 20.4414,67.3159 18.5,65.5C 19.0253,64.8076 19.6919,64.3076 20.5,64C 19.4258,63.2613 18.7591,62.2613 18.5,61C 19.7221,59.437 19.7221,57.937 18.5,56.5C 19.0476,55.3115 19.3809,54.1448 19.5,53C 17.3799,51.4773 17.0465,49.6439 18.5,47.5C 16.9657,45.698 16.6323,43.8646 17.5,42C 16.7323,39.8636 16.0656,37.6969 15.5,35.5C 15.7576,33.3703 16.091,31.2036 16.5,29C 15.6721,28.0853 14.6721,27.4186 13.5,27C 15.4253,24.5346 15.4253,21.868 13.5,19C 14.1667,18.3333 14.8333,17.6667 15.5,17C 13.7308,13.5904 14.7308,11.4237 18.5,10.5 Z"/></g>
<g><path style="opacity:1" fill="#a5cffd" d="M 19.5,11.5 C 21.9341,14.1708 24.2674,17.0042 26.5,20C 21.6798,26.4104 21.1798,33.2437 25,40.5C 25.66,42.3237 26.8267,43.657 28.5,44.5C 28.5569,45.609 28.8902,46.609 29.5,47.5C 29.8381,53.0124 32.1714,57.5124 36.5,61C 34.3546,67.2129 35.8546,72.3796 41,76.5C 41.5356,81.7222 42.7023,86.3888 44.5,90.5C 45.8589,91.0065 46.8589,92.0065 47.5,93.5C 50.106,93.7247 52.7727,93.3913 55.5,92.5C 56.5,92.1667 57.5,91.8333 58.5,91.5C 59.2343,89.1851 60.5676,87.3518 62.5,86C 61.1602,83.8215 61.4935,83.3215 63.5,84.5C 63.6107,85.1174 63.944,85.6174 64.5,86C 63.001,89.666 60.8343,92.8326 58,95.5C 57.586,95.0426 57.086,94.7093 56.5,94.5C 56.1667,95.1667 55.8333,95.8333 55.5,96.5C 51.9684,95.1969 48.4684,95.1969 45,96.5C 43.738,94.6972 42.0713,93.3639 40,92.5C 37.1449,88.0932 33.9782,83.2599 30.5,78C 30.9574,77.586 31.2907,77.086 31.5,76.5C 31.0428,74.4024 30.0428,72.7358 28.5,71.5C 27.0858,69.1327 25.7525,66.6327 24.5,64C 25.8333,61.3333 25.8333,58.6667 24.5,56C 21.4652,52.5625 19.4652,48.5625 18.5,44C 19.1845,41.6751 18.8511,39.3417 17.5,37C 18.5921,32.2394 18.2587,27.2394 16.5,22C 18.2636,19.134 19.2636,15.634 19.5,11.5 Z"/></g>
</svg>
